<svg xmlns="http://www.w3.org/2000/svg" shape-rendering="geometricPrecision" text-rendering="geometricPrecision" image-rendering="optimizeQuality" fill-rule="evenodd" clip-rule="evenodd" viewBox="0 0 465 512.08"><path d="M439.87 0H25.13C11.31 0 0 11.31 0 25.13v461.82c0 13.82 11.31 25.13 25.13 25.13h414.74c13.82 0 25.13-11.31 25.13-25.13V25.13C465 11.31 453.69 0 439.87 0z"/><path fill="#fff" fill-rule="nonzero" d="M95.91 420.99l15.34-1.08c.33 2.8 1.02 4.94 2.04 6.4 1.67 2.37 4.04 3.57 7.13 3.57 2.31 0 4.08-.61 5.33-1.83 1.25-1.22 1.87-2.64 1.87-4.24 0-1.53-.58-2.9-1.76-4.11-1.19-1.21-3.94-2.33-8.26-3.42-7.09-1.78-12.13-4.17-15.15-7.15-3.05-2.97-4.57-6.76-4.57-11.37 0-3.03.78-5.88 2.34-8.57 1.56-2.71 3.9-4.82 7.03-6.36 3.13-1.54 7.41-2.31 12.86-2.31 6.68 0 11.77 1.4 15.28 4.22 3.51 2.8 5.59 7.26 6.26 13.39l-15.2 1.01c-.4-2.68-1.25-4.63-2.54-5.83-1.3-1.23-3.1-1.83-5.37-1.83-1.88 0-3.3.45-4.25 1.34-.95.9-1.43 2-1.43 3.29 0 .93.39 1.77 1.16 2.52.74.79 2.54 1.5 5.39 2.17 7.07 1.72 12.12 3.46 15.17 5.22 3.05 1.76 5.28 3.93 6.67 6.54 1.39 2.59 2.08 5.51 2.08 8.73 0 3.78-.92 7.27-2.78 10.47-1.86 3.18-4.44 5.61-7.78 7.26-3.32 1.65-7.51 2.47-12.58 2.47-8.89 0-15.05-1.93-18.47-5.79-3.42-3.86-5.36-8.76-5.81-14.71zm54.6-39.48h16.15v20.6h17.69v-20.6h16.22v59h-16.22v-23.9h-17.69v23.9h-16.15v-59zm93 49.27H225.2l-2.64 9.73h-16.5l19.69-59h17.7l19.61 59h-16.93l-2.62-9.73zm-3.42-12.77l-5.71-21.2-5.74 21.2h11.45zm28.3 22.5v-59h26.94c5 0 8.82.49 11.45 1.45 2.64.97 4.78 2.77 6.39 5.37 1.63 2.62 2.43 5.83 2.43 9.59 0 3.27-.63 6.1-1.87 8.47-1.23 2.39-2.93 4.32-5.11 5.8-1.37.93-3.28 1.71-5.68 2.33 1.93.73 3.33 1.45 4.21 2.17.58.48 1.45 1.53 2.58 3.11 1.12 1.57 1.86 2.81 2.25 3.66l7.86 17.05h-18.27l-8.64-17.99c-1.11-2.33-2.06-3.87-2.92-4.55-1.15-.92-2.5-1.36-3.97-1.36h-1.42v23.9h-16.23zm16.23-35.02h6.83c.73 0 2.16-.3 4.29-.81 1.06-.26 1.94-.86 2.61-1.86.68-1 1.03-2.14 1.03-3.43 0-1.91-.55-3.38-1.61-4.4-1.07-1.02-3.09-1.53-6.04-1.53h-7.11v12.03zm40.41-23.98h43.25v12.61h-27.03v9.39h25.06v12.03h-25.06v11.62h27.84v13.35h-44.06v-59z"/><path fill="#1A1A1A" fill-rule="nonzero" d="M465 309.94H0v-14.3h465z"/><path fill="#fff" fill-rule="nonzero" d="M272.59 93.61h21.37l-46.7 53.37 54.94 72.63h-43.02l-33.69-44.05-38.55 44.05h-21.38l49.94-57.09-52.7-68.91h44.11l30.45 40.26 35.23-40.26zm-7.51 113.2h11.85l-76.46-101.08h-12.71l77.32 101.08z"/></svg>